<?xml version="1.0" standalone="no"?>
<!DOCTYPE svg PUBLIC "-//W3C//DTD SVG 20010904//EN"
 "http://www.w3.org/TR/2001/REC-SVG-20010904/DTD/svg10.dtd">
<svg version="1.0" xmlns="http://www.w3.org/2000/svg"
 width="200.000000pt" height="200.000000pt" viewBox="0 0 200.000000 200.000000"
 preserveAspectRatio="xMidYMid meet">
<metadata>
Created by potrace 1.15, written by Peter Selinger 2001-2017
</metadata>
<g transform="translate(0.000000,200.000000) scale(0.100000,-0.100000)"
fill="#000000" stroke="none">
<path d="M805 1739 c-163 -40 -321 -142 -431 -279 -177 -219 -223 -533 -117
-797 57 -143 175 -285 311 -374 134 -88 257 -123 432 -123 175 0 298 35 432
123 244 160 380 425 365 711 -6 123 -24 197 -73 299 -108 231 -313 395 -553
446 -101 21 -266 18 -366 -6z m410 -59 c206 -65 369 -205 460 -395 53 -110 69
-184 69 -320 1 -145 -15 -211 -81 -345 -39 -80 -60 -109 -137 -186 -76 -76
-106 -98 -186 -137 -124 -61 -207 -80 -345 -80 -209 0 -370 67 -520 218 -139
139 -210 294 -222 485 -22 369 224 691 592 776 89 20 280 12 370 -16z"/>
<path d="M867 1589 c17 -19 19 -27 10 -40 -7 -9 -17 -18 -24 -20 -6 -2 20 -41
60 -88 l72 -84 3 -105 c4 -117 -3 -132 -59 -132 -15 0 -31 -4 -34 -10 -4 -6
33 -10 104 -10 67 0 111 4 111 10 0 6 -15 10 -32 10 -18 0 -38 4 -44 8 -15 10
-27 130 -18 187 5 39 19 61 77 128 l70 82 -108 3 c-95 2 -110 5 -122 22 -8 11
-21 20 -29 20 -8 0 -14 4 -14 10 0 5 -10 15 -22 21 l-23 12 22 -24z"/>
<path d="M700 805 c0 -26 31 -93 46 -99 21 -8 42 3 50 26 6 19 6 19 18 -3 25
-50 66 -20 82 60 8 41 -21 44 -31 4 -7 -28 -7 -28 -16 -5 -11 30 -57 30 -68 0
-8 -21 -8 -21 -15 5 -5 22 -12 27 -36 27 -20 0 -30 -5 -30 -15z"/>
</g>
</svg>
