<?xml version="1.0" standalone="no"?>
<!DOCTYPE svg PUBLIC "-//W3C//DTD SVG 20010904//EN"
 "http://www.w3.org/TR/2001/REC-SVG-20010904/DTD/svg10.dtd">
<svg version="1.0" xmlns="http://www.w3.org/2000/svg"
 width="200.000000pt" height="200.000000pt" viewBox="0 0 200.000000 200.000000"
 preserveAspectRatio="xMidYMid meet">

<g transform="translate(0.000000,200.000000) scale(0.100000,-0.100000)"
fill="#000000" stroke="none">
<path d="M0 1000 l0 -1000 1000 0 1000 0 0 1000 0 1000 -1000 0 -1000 0 0
-1000z m1171 745 c240 -51 445 -215 553 -446 49 -102 67 -176 73 -299 15 -286
-121 -551 -365 -711 -134 -88 -257 -123 -432 -123 -175 0 -298 35 -432 123
-347 227 -465 663 -281 1036 98 198 301 361 518 414 100 24 265 27 366 6z"/>
<path d="M845 1696 c-368 -85 -614 -407 -592 -776 12 -191 83 -346 222 -485
150 -151 311 -218 520 -218 138 0 221 19 345 80 80 39 110 61 186 137 77 77
98 106 137 186 66 134 82 200 81 345 0 136 -16 210 -69 320 -91 190 -254 330
-460 395 -90 28 -281 36 -370 16z m45 -116 c0 -6 6 -10 14 -10 8 0 21 -9 29
-20 12 -17 27 -20 122 -22 l108 -3 -70 -82 c-58 -67 -72 -89 -77 -128 -9 -57
3 -177 18 -187 6 -4 26 -8 44 -8 17 0 32 -4 32 -10 0 -6 -44 -10 -111 -10 -71
0 -108 4 -104 10 3 6 19 10 34 10 56 0 63 15 59 132 l-3 105 -72 84 c-40 47
-66 86 -60 88 7 2 17 11 24 20 9 13 7 21 -10 40 l-22 24 23 -12 c12 -6 22 -16
22 -21z m-140 -595 c0 -8 -9 -15 -19 -15 -36 0 -34 -44 2 -51 28 -6 22 -23
-12 -33 -45 -13 -81 13 -81 59 0 40 19 54 73 55 26 0 37 -4 37 -15z m141 0 c0
-5 -9 -11 -21 -13 -27 -4 -26 -20 3 -25 l22 -4 -22 -8 c-31 -10 -29 -25 2 -25
14 0 25 -4 25 -10 0 -6 -27 -10 -60 -10 l-60 0 0 55 0 56 55 -3 c30 -2 55 -7
56 -13z m134 5 c3 -6 -4 -14 -16 -19 l-23 -8 22 -12 c52 -27 4 -80 -60 -66
-33 8 -38 35 -6 35 l22 0 -22 16 c-42 29 -20 64 39 64 21 0 41 -5 44 -10z
m150 -31 c42 -65 42 -69 2 -69 -20 0 -39 5 -42 10 -8 14 -42 13 -47 -1 -2 -6
-11 -10 -21 -8 -15 4 -13 11 13 57 38 65 60 68 95 11z m165 31 c10 -6 15 -25
15 -55 0 -40 -2 -45 -22 -45 -13 0 -23 6 -23 13 0 9 -2 9 -9 -1 -5 -8 -21 -12
-37 -10 -24 2 -30 8 -32 32 -2 15 -1 39 2 52 6 21 12 24 49 24 23 0 49 -5 57
-10z m-574 -197 c7 -26 7 -26 15 -5 11 30 57 30 68 0 9 -23 9 -23 16 5 10 40
39 37 31 -4 -16 -80 -57 -110 -82 -60 -12 22 -12 22 -18 3 -15 -47 -58 -37
-80 19 -23 57 -21 69 14 69 24 0 31 -5 36 -27z m232 -30 l3 -53 -35 0 -36 0 0
48 c0 56 5 64 40 60 23 -3 25 -8 28 -55z m84 41 c28 -15 32 -15 40 0 5 9 16
16 23 16 11 0 15 -14 15 -55 0 -52 -1 -55 -25 -55 -14 0 -35 6 -46 13 -17 10
-23 10 -26 0 -3 -7 -11 -13 -19 -13 -10 0 -14 14 -14 55 0 60 5 63 52 39z
m218 1 c0 -9 -9 -15 -25 -15 -14 0 -25 -4 -25 -10 0 -5 9 -10 20 -10 11 0 20
-4 20 -10 0 -5 -9 -10 -20 -10 -11 0 -20 -4 -20 -10 0 -5 11 -10 25 -10 14 0
25 -4 25 -10 0 -5 -24 -10 -54 -10 -62 0 -72 12 -60 75 6 35 6 35 60 35 41 0
54 -4 54 -15z m-503 -222 c-21 -5 -17 -30 4 -25 11 3 12 1 2 -9 -10 -10 -16
-10 -24 -2 -16 16 -4 43 18 42 17 -1 17 -2 0 -6z m99 -5 c-9 -5 -14 -14 -11
-19 4 -5 11 -7 16 -4 5 4 9 1 9 -4 0 -15 -27 -14 -34 2 -5 10 -7 10 -12 0 -7
-16 -30 -17 -39 -3 -14 23 4 37 45 37 32 0 38 -2 26 -9z m61 -16 c1 -18 -1
-21 -8 -11 -7 11 -9 11 -9 1 0 -7 -4 -10 -10 -7 -5 3 -10 15 -10 25 0 29 35
21 37 -8z m46 8 c-8 -31 -20 -33 -25 -5 -4 19 -1 25 12 25 13 0 17 -6 13 -20z
m57 -19 c0 -3 -11 -6 -24 -6 -13 0 -23 2 -22 5 2 3 6 14 10 25 7 20 8 20 22 1
8 -11 14 -22 14 -25z m17 2 c-3 -10 -5 -4 -5 12 0 17 2 24 5 18 2 -7 2 -21 0
-30z m37 -5 c7 -5 5 -8 -6 -8 -13 0 -18 7 -17 28 1 21 2 22 6 7 3 -11 10 -23
17 -27z m38 33 c-11 -7 -10 -9 3 -15 18 -7 11 -26 -9 -26 -8 0 -13 11 -13 25
0 16 5 25 16 25 12 0 13 -2 3 -9z m71 -13 c7 -26 3 -32 -17 -25 -9 4 -12 14
-9 26 7 27 19 27 26 -1z m-323 -63 c0 -8 -6 -15 -12 -15 -9 0 -8 -4 2 -10 13
-8 12 -10 -2 -10 -13 0 -18 8 -18 25 0 16 6 25 15 25 8 0 15 -7 15 -15z m92
-10 c4 -19 1 -25 -13 -25 -12 0 -19 7 -19 18 0 38 26 43 32 7z m97 18 c-1 -16
-18 -48 -18 -36 -1 6 -4 18 -7 27 -4 11 -1 16 10 16 9 0 16 -3 15 -7z m-146
-11 c3 7 6 9 6 3 0 -5 -4 -17 -9 -25 -9 -13 -11 -13 -20 0 -14 22 -12 34 4 21
11 -9 15 -9 19 1z m80 -17 c-7 -21 -13 -19 -13 6 0 11 4 18 10 14 5 -3 7 -12
3 -20z m23 -12 c-11 -11 -17 4 -9 23 7 18 8 18 11 1 2 -10 1 -21 -2 -24z m91
17 c1 -14 -4 -20 -20 -20 -18 0 -19 2 -7 10 10 6 11 10 3 10 -7 0 -13 5 -13
10 0 20 36 10 37 -10z"/>
<path d="M910 1544 c0 -8 5 -12 10 -9 6 4 8 11 5 16 -9 14 -15 11 -15 -7z"/>
<path d="M889 1492 c11 -16 28 -35 38 -43 9 -8 2 5 -17 29 -38 48 -52 57 -21
14z"/>
<path d="M925 1510 c-4 -6 28 -10 90 -10 63 0 94 -4 90 -10 -4 -6 -10 -8 -14
-5 -10 6 -42 -28 -45 -47 -1 -7 -6 -20 -10 -28 -5 -8 3 -4 17 9 27 25 35 37
17 26 -5 -3 -10 -2 -10 3 0 12 25 33 32 27 2 -3 15 6 28 20 l23 25 -106 0
c-60 0 -109 -4 -112 -10z"/>
<path d="M965 1400 c10 -11 20 -20 23 -20 3 0 -3 9 -13 20 -10 11 -20 20 -23
20 -3 0 3 -9 13 -20z"/>
<path d="M1105 940 c-3 -5 -1 -10 4 -10 6 0 11 5 11 10 0 6 -2 10 -4 10 -3 0
-8 -4 -11 -10z"/>
<path d="M1300 950 c0 -19 3 -21 12 -12 9 9 9 15 0 24 -9 9 -12 7 -12 -12z"/>
<path d="M832 571 c4 -13 18 -16 19 -4 0 4 -5 9 -11 12 -7 2 -11 -2 -8 -8z"/>
</g>
</svg>
