<?xml version="1.0" standalone="no"?>
<!DOCTYPE svg PUBLIC "-//W3C//DTD SVG 20010904//EN"
 "http://www.w3.org/TR/2001/REC-SVG-20010904/DTD/svg10.dtd">
<svg version="1.0" xmlns="http://www.w3.org/2000/svg"
 width="200.000000pt" height="200.000000pt" viewBox="0 0 200.000000 200.000000"
 preserveAspectRatio="xMidYMid meet">

<g transform="translate(0.000000,200.000000) scale(0.100000,-0.100000)"
fill="#000000" stroke="none">
<path d="M805 1739 c-163 -40 -321 -142 -431 -279 -177 -219 -223 -533 -117
-797 57 -143 175 -285 311 -374 134 -88 257 -123 432 -123 175 0 298 35 432
123 244 160 380 425 365 711 -6 123 -24 197 -73 299 -108 231 -313 395 -553
446 -101 21 -266 18 -366 -6z m410 -59 c206 -65 369 -205 460 -395 53 -110 69
-184 69 -320 1 -145 -15 -211 -81 -345 -39 -80 -60 -109 -137 -186 -76 -76
-106 -98 -186 -137 -124 -61 -207 -80 -345 -80 -209 0 -370 67 -520 218 -139
139 -210 294 -222 485 -22 369 224 691 592 776 89 20 280 12 370 -16z"/>
<path d="M867 1589 c17 -19 19 -27 10 -40 -7 -9 -17 -18 -24 -20 -6 -2 20 -41
60 -88 l72 -84 3 -105 c4 -117 -3 -132 -59 -132 -15 0 -31 -4 -34 -10 -4 -6
33 -10 104 -10 67 0 111 4 111 10 0 6 -15 10 -32 10 -18 0 -38 4 -44 8 -15 10
-27 130 -18 187 5 39 19 61 77 128 l70 82 -108 3 c-95 2 -110 5 -122 22 -8 11
-21 20 -29 20 -8 0 -14 4 -14 10 0 5 -10 15 -22 21 l-23 12 22 -24z m58 -38
c3 -5 1 -12 -5 -16 -5 -3 -10 1 -10 9 0 18 6 21 15 7z m-15 -73 c19 -24 26
-37 17 -29 -19 15 -61 71 -54 71 2 0 19 -19 37 -42z m210 17 c-13 -14 -26 -23
-28 -20 -7 6 -32 -15 -32 -27 0 -5 5 -6 10 -3 18 11 10 -1 -17 -26 -14 -13
-22 -17 -17 -9 4 8 9 21 10 28 3 19 35 53 45 47 4 -3 10 -1 14 5 4 6 -27 10
-90 10 -62 0 -94 4 -90 10 3 6 52 10 112 10 l106 0 -23 -25z m-145 -95 c10
-11 16 -20 13 -20 -3 0 -13 9 -23 20 -10 11 -16 20 -13 20 3 0 13 -9 23 -20z"/>
<path d="M658 989 c-12 -6 -18 -22 -18 -44 0 -46 36 -72 81 -59 34 10 40 27
12 33 -36 7 -38 51 -2 51 10 0 19 7 19 15 0 18 -64 21 -92 4z"/>
<path d="M780 945 l0 -55 60 0 c33 0 60 4 60 10 0 6 -11 10 -25 10 -31 0 -33
15 -2 25 l22 8 -22 4 c-29 5 -30 21 -3 25 41 6 19 23 -35 26 l-55 3 0 -56z"/>
<path d="M932 988 c-18 -18 -15 -35 10 -52 l22 -16 -22 0 c-32 0 -27 -27 6
-35 64 -14 112 39 60 66 l-22 12 23 8 c12 5 19 13 16 19 -9 14 -78 13 -93 -2z"/>
<path d="M1080 948 c-26 -46 -28 -53 -13 -57 10 -2 19 2 21 8 5 14 39 15 47 1
3 -5 22 -10 42 -10 40 0 40 4 -2 69 -35 57 -57 54 -95 -11z m40 -8 c0 -5 -5
-10 -11 -10 -5 0 -7 5 -4 10 3 6 8 10 11 10 2 0 4 -4 4 -10z"/>
<path d="M1234 976 c-3 -13 -4 -37 -2 -52 2 -24 8 -30 32 -32 16 -2 32 2 37
10 7 10 9 10 9 1 0 -7 10 -13 23 -13 20 0 22 5 22 45 0 54 -12 65 -72 65 -37
0 -43 -3 -49 -24z m78 -38 c-9 -9 -12 -7 -12 12 0 19 3 21 12 12 9 -9 9 -15 0
-24z"/>
<path d="M700 805 c0 -26 31 -93 46 -99 21 -8 42 3 50 26 6 19 6 19 18 -3 25
-50 66 -20 82 60 8 41 -21 44 -31 4 -7 -28 -7 -28 -16 -5 -11 30 -57 30 -68 0
-8 -21 -8 -21 -15 5 -5 22 -12 27 -36 27 -20 0 -30 -5 -30 -15z"/>
<path d="M937 814 c-4 -4 -7 -29 -7 -56 l0 -48 36 0 35 0 -3 53 c-3 47 -5 52
-28 55 -14 2 -29 0 -33 -4z"/>
<path d="M1030 765 c0 -41 4 -55 14 -55 8 0 16 6 19 13 3 10 9 10 26 0 11 -7
32 -13 46 -13 24 0 25 3 25 55 0 41 -4 55 -15 55 -7 0 -18 -7 -23 -16 -8 -15
-12 -15 -40 0 -47 24 -52 21 -52 -39z"/>
<path d="M1186 785 c-12 -63 -2 -75 60 -75 30 0 54 5 54 10 0 6 -11 10 -25 10
-14 0 -25 5 -25 10 0 6 9 10 20 10 11 0 20 5 20 10 0 6 -9 10 -20 10 -11 0
-20 5 -20 10 0 6 11 10 25 10 16 0 25 6 25 15 0 11 -13 15 -54 15 -54 0 -54 0
-60 -35z"/>
<path d="M773 574 c-8 -22 13 -42 30 -25 10 10 9 12 -2 9 -21 -5 -25 20 -4 25
17 4 17 5 0 6 -10 0 -20 -6 -24 -15z"/>
<path d="M823 574 c-11 -28 28 -49 41 -21 5 10 7 10 12 0 7 -16 34 -17 34 -2
0 5 -4 8 -9 4 -5 -3 -12 -1 -16 4 -3 5 2 14 11 19 12 7 6 9 -26 9 -25 0 -44
-5 -47 -13z m28 -7 c-1 -12 -15 -9 -19 4 -3 6 1 10 8 8 6 -3 11 -8 11 -12z"/>
<path d="M920 570 c0 -10 5 -22 10 -25 6 -3 10 0 10 7 0 10 2 10 9 -1 7 -10 9
-7 8 11 -2 29 -37 37 -37 8z"/>
<path d="M978 565 c5 -28 17 -26 25 5 4 14 0 20 -13 20 -13 0 -16 -6 -12 -25z"/>
<path d="M1024 575 c-4 -11 -8 -22 -10 -25 -1 -3 9 -5 22 -5 28 0 29 4 10 31
-14 19 -15 19 -22 -1z"/>
<path d="M1072 565 c0 -16 2 -22 5 -12 2 9 2 23 0 30 -3 6 -5 -1 -5 -18z"/>
<path d="M1091 568 c-1 -21 4 -28 17 -28 11 0 13 3 6 8 -7 4 -14 16 -17 27 -4
15 -5 14 -6 -7z"/>
<path d="M1133 565 c0 -14 5 -25 13 -25 20 0 27 19 9 26 -13 6 -14 8 -3 15 10
7 9 9 -3 9 -11 0 -16 -9 -16 -25z"/>
<path d="M1197 569 c-3 -12 0 -22 9 -26 20 -7 24 -1 17 25 -7 28 -19 28 -26 1z"/>
<path d="M870 495 c0 -17 5 -25 18 -25 14 0 15 2 2 10 -10 6 -11 10 -2 10 6 0
12 7 12 15 0 8 -7 15 -15 15 -9 0 -15 -9 -15 -25z"/>
<path d="M967 513 c-15 -14 -7 -43 12 -43 14 0 17 6 13 25 -4 25 -13 31 -25
18z"/>
<path d="M1064 504 c3 -9 6 -21 7 -27 0 -7 4 -3 9 8 13 29 12 35 -6 35 -11 0
-14 -5 -10 -16z"/>
<path d="M910 504 c0 -5 5 -16 10 -24 9 -13 11 -13 20 0 5 8 9 20 9 25 0 6 -3
4 -6 -3 -4 -10 -8 -10 -19 -1 -8 6 -14 8 -14 3z"/>
<path d="M1010 491 c0 -25 6 -27 13 -6 4 8 2 17 -3 20 -6 4 -10 -3 -10 -14z"/>
<path d="M1037 496 c-4 -10 -5 -21 -2 -24 9 -9 17 6 13 25 -3 17 -4 17 -11 -1z"/>
<path d="M1100 500 c0 -5 6 -10 13 -10 8 0 7 -4 -3 -10 -12 -8 -11 -10 7 -10
16 0 21 6 20 20 -1 20 -37 30 -37 10z"/>
</g>
</svg>
